REM DIRINDEX 1\2,1\3,1\4
REM DIRNAME cjc151,folder01,folder02,folder03
TITLE ""
FILE "013 013_TOEFL_3900.mp3" MP3
  TRACK 01 AUDIO
    TITLE "2:cjc151_0533"
    INDEX 01 00:00:00
  TRACK 02 AUDIO
    TITLE "0:"
    INDEX 01 00:01:17
  TRACK 03 AUDIO
    TITLE "3:cjc151_0534"
    INDEX 01 00:02:69
  TRACK 04 AUDIO
    TITLE "0:"
    INDEX 01 00:06:67
  TRACK 05 AUDIO
    TITLE "2:cjc151_0535"
    INDEX 01 00:08:46
  TRACK 06 AUDIO
    TITLE "0:"
    INDEX 01 00:09:49
  TRACK 07 AUDIO
    TITLE "3:cjc151_0536"
    INDEX 01 00:11:29
  TRACK 08 AUDIO
    TITLE "0:"
    INDEX 01 00:14:62
  TRACK 09 AUDIO
    TITLE "2:cjc151_0537"
    INDEX 01 00:16:51
  TRACK 10 AUDIO
    TITLE "0:"
    INDEX 01 00:18:07
  TRACK 11 AUDIO
    TITLE "3:cjc151_0538"
    INDEX 01 00:19:62
  TRACK 12 AUDIO
    TITLE "0:"
    INDEX 01 00:24:41
  TRACK 13 AUDIO
    TITLE "2:cjc151_0539"
    INDEX 01 00:26:18
  TRACK 14 AUDIO
    TITLE "0:"
    INDEX 01 00:27:38
  TRACK 15 AUDIO
    TITLE "3:cjc151_0540"
    INDEX 01 00:29:13
  TRACK 16 AUDIO
    TITLE "0:"
    INDEX 01 00:33:21
  TRACK 17 AUDIO
    TITLE "2:cjc151_0541"
    INDEX 01 00:34:71
  TRACK 18 AUDIO
    TITLE "0:"
    INDEX 01 00:36:29
  TRACK 19 AUDIO
    TITLE "3:cjc151_0542"
    INDEX 01 00:38:02
  TRACK 20 AUDIO
    TITLE "0:"
    INDEX 01 00:42:12
  TRACK 21 AUDIO
    TITLE "2:cjc151_0543"
    INDEX 01 00:43:66
  TRACK 22 AUDIO
    TITLE "0:"
    INDEX 01 00:44:71
  TRACK 23 AUDIO
    TITLE "3:cjc151_0544"
    INDEX 01 00:46:54
  TRACK 24 AUDIO
    TITLE "0:"
    INDEX 01 00:51:26
  TRACK 25 AUDIO
    TITLE "2:cjc151_0545"
    INDEX 01 00:53:06
  TRACK 26 AUDIO
    TITLE "0:"
    INDEX 01 00:54:05
  TRACK 27 AUDIO
    TITLE "3:cjc151_0546"
    INDEX 01 00:55:63
  TRACK 28 AUDIO
    TITLE "0:"
    INDEX 01 00:59:63
  TRACK 29 AUDIO
    TITLE "2:cjc151_0547"
    INDEX 01 01:01:42
  TRACK 30 AUDIO
    TITLE "0:"
    INDEX 01 01:02:63
  TRACK 31 AUDIO
    TITLE "3:cjc151_0548"
    INDEX 01 01:04:43
  TRACK 32 AUDIO
    TITLE "0:"
    INDEX 01 01:09:38
  TRACK 33 AUDIO
    TITLE "2:cjc151_0549"
    INDEX 01 01:11:17
  TRACK 34 AUDIO
    TITLE "0:"
    INDEX 01 01:12:24
  TRACK 35 AUDIO
    TITLE "3:cjc151_0550"
    INDEX 01 01:14:06
  TRACK 36 AUDIO
    TITLE "0:"
    INDEX 01 01:17:22
  TRACK 37 AUDIO
    TITLE "2:cjc151_0551"
    INDEX 01 01:19:03
  TRACK 38 AUDIO
    TITLE "0:"
    INDEX 01 01:20:16
  TRACK 39 AUDIO
    TITLE "3:cjc151_0552"
    INDEX 01 01:21:70
  TRACK 40 AUDIO
    TITLE "0:"
    INDEX 01 01:26:07
  TRACK 41 AUDIO
    TITLE "2:cjc151_0553"
    INDEX 01 01:27:59
  TRACK 42 AUDIO
    TITLE "0:"
    INDEX 01 01:30:26
  TRACK 43 AUDIO
    TITLE "3:cjc151_0554"
    INDEX 01 01:32:08
  TRACK 44 AUDIO
    TITLE "0:"
    INDEX 01 01:36:31
  TRACK 45 AUDIO
    TITLE "2:cjc151_0555"
    INDEX 01 01:38:10
  TRACK 46 AUDIO
    TITLE "0:"
    INDEX 01 01:39:37
  TRACK 47 AUDIO
    TITLE "3:cjc151_0556"
    INDEX 01 01:41:18
  TRACK 48 AUDIO
    TITLE "0:"
    INDEX 01 01:44:36
  TRACK 49 AUDIO
    TITLE "2:cjc151_0557"
    INDEX 01 01:46:18
  TRACK 50 AUDIO
    TITLE "0:"
    INDEX 01 01:47:39
  TRACK 51 AUDIO
    TITLE "3:cjc151_0558"
    INDEX 01 01:49:14
  TRACK 52 AUDIO
    TITLE "0:"
    INDEX 01 01:53:06
  TRACK 53 AUDIO
    TITLE "2:cjc151_0559"
    INDEX 01 01:54:60
  TRACK 54 AUDIO
    TITLE "0:"
    INDEX 01 01:55:69
  TRACK 55 AUDIO
    TITLE "3:cjc151_0560"
    INDEX 01 01:57:51
  TRACK 56 AUDIO
    TITLE "0:"
    INDEX 01 02:01:19
  TRACK 57 AUDIO
    TITLE "2:cjc151_0561"
    INDEX 01 02:02:73
  TRACK 58 AUDIO
    TITLE "0:"
    INDEX 01 02:04:00
  TRACK 59 AUDIO
    TITLE "3:cjc151_0562"
    INDEX 01 02:05:54
  TRACK 60 AUDIO
    TITLE "0:"
    INDEX 01 02:08:41
  TRACK 61 AUDIO
    TITLE "2:cjc151_0563"
    INDEX 01 02:10:20
  TRACK 62 AUDIO
    TITLE "0:"
    INDEX 01 02:11:43
  TRACK 63 AUDIO
    TITLE "3:cjc151_0564"
    INDEX 01 02:13:20
  TRACK 64 AUDIO
    TITLE "0:"
    INDEX 01 02:17:42
  TRACK 65 AUDIO
    TITLE "2:cjc151_0565"
    INDEX 01 02:19:17
  TRACK 66 AUDIO
    TITLE "0:"
    INDEX 01 02:20:24
  TRACK 67 AUDIO
    TITLE "3:cjc151_0566"
    INDEX 01 02:22:06
  TRACK 68 AUDIO
    TITLE "0:"
    INDEX 01 02:26:41
  TRACK 69 AUDIO
    TITLE "2:cjc151_0567"
    INDEX 01 02:28:20
  TRACK 70 AUDIO
    TITLE "0:"
    INDEX 01 02:29:17
  TRACK 71 AUDIO
    TITLE "3:cjc151_0568"
    INDEX 01 02:30:72
  TRACK 72 AUDIO
    TITLE "0:"
    INDEX 01 02:34:66
  TRACK 73 AUDIO
    TITLE "2:cjc151_0569"
    INDEX 01 02:36:45
  TRACK 74 AUDIO
    TITLE "0:"
    INDEX 01 02:37:54
  TRACK 75 AUDIO
    TITLE "3:cjc151_0570"
    INDEX 01 02:39:31
  TRACK 76 AUDIO
    TITLE "0:"
    INDEX 01 02:43:43
  TRACK 77 AUDIO
    TITLE "2:cjc151_0571"
    INDEX 01 02:45:22
  TRACK 78 AUDIO
    TITLE "0:"
    INDEX 01 02:46:30
  TRACK 79 AUDIO
    TITLE "3:cjc151_0572"
    INDEX 01 02:48:11
  TRACK 80 AUDIO
    TITLE "0:"
    INDEX 01 02:52:05
  TRACK 81 AUDIO
    TITLE "2:cjc151_0573"
    INDEX 01 02:53:61
  TRACK 82 AUDIO
    TITLE "0:"
    INDEX 01 02:54:72
  TRACK 83 AUDIO
    TITLE "3:cjc151_0574"
    INDEX 01 02:56:53
  TRACK 84 AUDIO
    TITLE "0:"
    INDEX 01 03:00:65
  TRACK 85 AUDIO
    TITLE "2:cjc151_0575"
    INDEX 01 03:02:44
  TRACK 86 AUDIO
    TITLE "0:"
    INDEX 01 03:03:67
  TRACK 87 AUDIO
    TITLE "3:cjc151_0576"
    INDEX 01 03:05:45
  TRACK 88 AUDIO
    TITLE "0:"
    INDEX 01 03:10:03
